<?xml version="1.0" encoding="UTF-8"?>
<svg width="500px" height="500px" viewBox="0 0 500 500" version="1.1" xmlns="http://www.w3.org/2000/svg" xmlns:xlink="http://www.w3.org/1999/xlink">
    <title>102</title>
    <g id="102" stroke="none" stroke-width="1" fill="none" fill-rule="evenodd">
        <g id="rainy" transform="translate(303.000612, 295.089199)">
            <rect id="Rectangle" fill="#D8D8D8" x="72.7910796" y="0" width="8.0393343" height="151.239977" rx="4.01966715"></rect>
            <path d="M38.650372,138.827436 C41.7352931,138.827436 44.2435093,141.296603 44.3065142,144.366429 L44.3077278,144.484792 C44.3077278,153.918742 48.1143477,157.685289 57.7088562,157.685289 C67.2074197,157.685289 71.0332735,153.993696 71.1088407,144.766112 L71.1099847,144.484792 L71.1100163,144.450436 L82.4245954,144.450661 C82.4246625,144.46203 82.4246962,144.473407 82.4246962,144.484792 C82.4246962,160.194645 73.5256599,169 57.7088562,169 C41.8920526,169 32.9930163,160.194645 32.9930163,144.484792 C32.9930163,141.360321 35.5259008,138.827436 38.650372,138.827436 Z" id="Combined-Shape" fill="#D8D8D8" fill-rule="nonzero"></path>
            <path d="M75.6197574,8.29745507 C117.383524,8.29745507 151.239746,42.153677 151.239746,83.9174433 L151.237,83.7284551 L-1.17424732e-06,83.729059 C0.100608759,42.4693133 33.2448233,8.97435577 74.3692427,8.30758599 Z" id="Combined-Shape" fill="#3D68C4"></path>
        </g>
        <g id="sunny" transform="translate(45.000000, 35.000000)" fill="#CA5933">
            <circle id="Oval" cx="154.873452" cy="162.199509" r="98.780993"></circle>
            <polygon id="Triangle" points="155 0 183.468133 48.0185383 126.531867 48.0185383"></polygon>
            <polygon id="Triangle" transform="translate(274.973296, 93.275884) rotate(60.000000) translate(-274.973296, -93.275884) " points="274.973296 69.2666149 303.44143 117.285153 246.505163 117.285153"></polygon>
            <polygon id="Triangle" transform="translate(274.973296, 231.809114) rotate(120.000000) translate(-274.973296, -231.809114) " points="274.973296 207.799845 303.44143 255.818383 246.505163 255.818383"></polygon>
            <polygon id="Triangle" transform="translate(155.000000, 301.075729) rotate(180.000000) translate(-155.000000, -301.075729) " points="155 277.06646 183.468133 325.084998 126.531867 325.084998"></polygon>
            <polygon id="Triangle" transform="translate(35.026704, 231.809114) rotate(240.000000) translate(-35.026704, -231.809114) " points="35.0267037 207.799845 63.4948371 255.818383 6.5585703 255.818383"></polygon>
            <polygon id="Triangle" transform="translate(35.026704, 93.275884) rotate(300.000000) translate(-35.026704, -93.275884) " points="35.0267037 69.2666149 63.4948371 117.285153 6.5585703 117.285153"></polygon>
        </g>
    </g>
</svg>