<?xml version="1.0" encoding="UTF-8"?>
<svg width="500px" height="500px" viewBox="0 0 500 500" version="1.1" xmlns="http://www.w3.org/2000/svg" xmlns:xlink="http://www.w3.org/1999/xlink">
    <title>104</title>
    <g id="104" stroke="none" stroke-width="1" fill="none" fill-rule="evenodd">
        <g id="sunny" transform="translate(47.000000, 37.000000)" fill="#CA5933">
            <circle id="Oval" cx="154.873452" cy="162.199509" r="98.780993"></circle>
            <polygon id="Triangle" points="155 0 183.468133 48.0185383 126.531867 48.0185383"></polygon>
            <polygon id="Triangle" transform="translate(274.973296, 93.275884) rotate(60.000000) translate(-274.973296, -93.275884) " points="274.973296 69.2666149 303.44143 117.285153 246.505163 117.285153"></polygon>
            <polygon id="Triangle" transform="translate(274.973296, 231.809114) rotate(120.000000) translate(-274.973296, -231.809114) " points="274.973296 207.799845 303.44143 255.818383 246.505163 255.818383"></polygon>
            <polygon id="Triangle" transform="translate(155.000000, 301.075729) rotate(180.000000) translate(-155.000000, -301.075729) " points="155 277.06646 183.468133 325.084998 126.531867 325.084998"></polygon>
            <polygon id="Triangle" transform="translate(35.026704, 231.809114) rotate(240.000000) translate(-35.026704, -231.809114) " points="35.0267037 207.799845 63.4948371 255.818383 6.5585703 255.818383"></polygon>
            <polygon id="Triangle" transform="translate(35.026704, 93.275884) rotate(300.000000) translate(-35.026704, -93.275884) " points="35.0267037 69.2666149 63.4948371 117.285153 6.5585703 117.285153"></polygon>
        </g>
        <g id="snow" transform="translate(340.125905, 286.688139)">
            <circle id="Oval" fill="#D8D8D8" cx="56.5199341" cy="42.8181319" r="42.8181319"></circle>
            <circle id="Oval" fill="#D8D8D8" cx="56.6004917" cy="120.399508" r="56.6004917"></circle>
            <circle id="Oval" fill="#FFFFFF" cx="39.8208627" cy="32.9699616" r="5.13817583"></circle>
            <circle id="Oval" fill="#FFFFFF" cx="73.6471869" cy="32.9699616" r="5.13817583"></circle>
            <polygon id="Triangle" fill="#FFFFFF" points="56.7340248 46.2435824 65.1447292 59.089022 48.3233203 59.089022"></polygon>
        </g>
    </g>
</svg>