<?xml version="1.0" encoding="UTF-8"?>
<svg width="500px" height="500px" viewBox="0 0 500 500" version="1.1" xmlns="http://www.w3.org/2000/svg" xmlns:xlink="http://www.w3.org/1999/xlink">
    <title>300</title>
    <g id="300" stroke="none" stroke-width="1" fill="none" fill-rule="evenodd">
        <g id="Group" transform="translate(49.000612, 28.000000)">
            <rect id="Rectangle" fill="#D8D8D8" x="192.999388" y="0" width="21.3156146" height="401" rx="10"></rect>
            <path d="M102.478191,368.089199 C110.657598,368.089199 117.307921,374.635986 117.474973,382.775371 L117.478191,383.089199 C117.478191,408.102519 127.571121,418.089199 153.010149,418.089199 C178.194786,418.089199 188.338714,408.301254 188.539074,383.835096 L188.542107,383.089199 L188.542191,382.999199 L218.541842,382.999092 C218.542019,383.029107 218.542107,383.059143 218.542107,383.089199 C218.542107,424.742547 194.947066,448.089199 153.010149,448.089199 C111.073233,448.089199 87.4781909,424.742547 87.4781909,383.089199 C87.4781909,374.804928 94.1939197,368.089199 102.478191,368.089199 Z" id="Combined-Shape" fill="#D8D8D8" fill-rule="nonzero"></path>
            <path d="M200.499388,22 C311.23248,22 400.999388,111.766908 400.999388,222.5 L400.995,222 L4.52896277e-14,221.99924 C0.267438513,112.6031 88.1462594,23.7947381 197.183754,22.0268613 Z" id="Combined-Shape" fill="#3D68C4"></path>
        </g>
    </g>
</svg>