<?xml version="1.0" encoding="UTF-8"?>
<svg width="500px" height="500px" viewBox="0 0 500 500" version="1.1" xmlns="http://www.w3.org/2000/svg" xmlns:xlink="http://www.w3.org/1999/xlink">
    <title>301</title>
    <g id="301" stroke="none" stroke-width="1" fill="none" fill-rule="evenodd">
        <g id="sunny" transform="translate(251.974468, 250.084998)" fill="#CA5933">
            <circle id="Oval" cx="96.7110475" cy="101.285819" r="61.6839956"></circle>
            <polygon id="Triangle" points="96.7900709 0 114.567056 29.9852756 79.0130861 29.9852756"></polygon>
            <polygon id="Triangle" transform="translate(171.707644, 58.246319) rotate(60.000000) translate(-171.707644, -58.246319) " points="171.707644 43.2536811 189.484629 73.2389567 153.930659 73.2389567"></polygon>
            <polygon id="Triangle" transform="translate(171.707644, 144.753681) rotate(120.000000) translate(-171.707644, -144.753681) " points="171.707644 129.761043 189.484629 159.746319 153.930659 159.746319"></polygon>
            <polygon id="Triangle" transform="translate(96.790071, 188.007362) rotate(180.000000) translate(-96.790071, -188.007362) " points="96.7900709 173.014724 114.567056 203 79.0130861 203"></polygon>
            <polygon id="Triangle" transform="translate(21.872498, 144.753681) rotate(240.000000) translate(-21.872498, -144.753681) " points="21.8724976 129.761043 39.6494825 159.746319 4.0955128 159.746319"></polygon>
            <polygon id="Triangle" transform="translate(21.872498, 58.246319) rotate(300.000000) translate(-21.872498, -58.246319) " points="21.8724976 43.2536811 39.6494825 73.2389567 4.0955128 73.2389567"></polygon>
        </g>
        <g id="rainy" transform="translate(54.000612, 47.089199)">
            <rect id="Rectangle" fill="#D8D8D8" x="129.949911" y="0" width="14.3521814" height="270.000412" rx="7.17609069"></rect>
            <path d="M69.0003835,247.840986 C74.5077233,247.840986 78.9855039,252.249054 79.097983,257.729446 L79.1001495,257.940752 C79.1001495,274.782664 85.8958986,281.506873 103.024447,281.506873 C119.98171,281.506873 126.811796,274.916476 126.946702,258.442978 L126.948745,257.940752 L126.949617,257.879986 L147.148101,257.8806 C147.148218,257.900637 147.148277,257.920688 147.148277,257.940752 C147.148277,285.98669 131.261317,301.706405 103.024447,301.706405 C74.7875774,301.706405 58.9006175,285.98669 58.9006175,257.940752 C58.9006175,252.362806 63.4224367,247.840986 69.0003835,247.840986 Z" id="Combined-Shape" fill="#D8D8D8" fill-rule="nonzero"></path>
            <path d="M134.999794,14.8129902 C209.558349,14.8129902 270,75.2546412 270,149.813196 L269.997,149.47599 L7.32475755e-07,149.475726 C0.180231481,75.8175026 59.3505393,16.0214175 132.767319,14.8310764 Z" id="Combined-Shape" fill="#3D68C4"></path>
        </g>
    </g>
</svg>