<?xml version="1.0" encoding="UTF-8"?>
<svg width="500px" height="500px" viewBox="0 0 500 500" version="1.1" xmlns="http://www.w3.org/2000/svg" xmlns:xlink="http://www.w3.org/1999/xlink">
    <title>302</title>
    <g id="302" stroke="none" stroke-width="1" fill="none" fill-rule="evenodd">
        <g id="rainy" transform="translate(54.000612, 47.089199)">
            <rect id="Rectangle" fill="#D8D8D8" x="129.949911" y="0" width="14.3521814" height="270.000412" rx="7.17609069"></rect>
            <path d="M69.0003835,247.840986 C74.5077233,247.840986 78.9855039,252.249054 79.097983,257.729446 L79.1001495,257.940752 C79.1001495,274.782664 85.8958986,281.506873 103.024447,281.506873 C119.98171,281.506873 126.811796,274.916476 126.946702,258.442978 L126.948745,257.940752 L126.949617,257.879986 L147.148101,257.8806 C147.148218,257.900637 147.148277,257.920688 147.148277,257.940752 C147.148277,285.98669 131.261317,301.706405 103.024447,301.706405 C74.7875774,301.706405 58.9006175,285.98669 58.9006175,257.940752 C58.9006175,252.362806 63.4224367,247.840986 69.0003835,247.840986 Z" id="Combined-Shape" fill="#D8D8D8" fill-rule="nonzero"></path>
            <path d="M134.999794,14.8129902 C209.558349,14.8129902 270,75.2546412 270,149.813196 L269.997,149.47599 L7.32475755e-07,149.475726 C0.180231481,75.8175026 59.3505393,16.0214175 132.767319,14.8310764 Z" id="Combined-Shape" fill="#3D68C4"></path>
        </g>
        <g id="cloudy" transform="translate(250.170088, 299.000000)" fill="#D8D8D8">
            <circle id="Oval" cx="37.0557185" cy="118.944282" r="37.0557185"></circle>
            <circle id="Oval" cx="74.111437" cy="75.941349" r="43.0029326"></circle>
            <circle id="Oval" cx="120.316716" cy="43.0029326" r="43.0029326"></circle>
            <circle id="Oval" cx="154.627566" cy="107.049853" r="48.9501466"></circle>
            <rect id="Rectangle" x="42.0879765" y="97.9002933" width="114.369501" height="58.0997067"></rect>
        </g>
    </g>
</svg>