<?xml version="1.0" encoding="UTF-8"?>
<svg width="500px" height="500px" viewBox="0 0 500 500" version="1.1" xmlns="http://www.w3.org/2000/svg" xmlns:xlink="http://www.w3.org/1999/xlink">
    <title>308</title>
    <g id="308" stroke="none" stroke-width="1" fill="none" fill-rule="evenodd">
        <g id="Group" transform="translate(129.098508, 301.711796)" fill="#3D68C4">
            <g id="drop" transform="translate(9.669305, 19.000000) rotate(-45.000000) translate(-9.669305, -19.000000) ">
                <path d="M9.66930541,38 C15.0095153,38 19.3386108,33.6709045 19.3386108,28.3306946 C19.3386108,22.9904847 9.66930541,0 9.66930541,0 C9.66930541,0 6.81096821e-14,22.9904847 6.81096821e-14,28.3306946 C6.81096821e-14,33.6709045 4.32909549,38 9.66930541,38 Z" id="Oval"></path>
            </g>
        </g>
        <g id="Group" transform="translate(169.403595, 166.654401)" fill="#3D68C4">
            <g id="drop" transform="translate(9.669305, 19.000000) rotate(-45.000000) translate(-9.669305, -19.000000) ">
                <path d="M9.66930541,38 C15.0095153,38 19.3386108,33.6709045 19.3386108,28.3306946 C19.3386108,22.9904847 9.66930541,0 9.66930541,0 C9.66930541,0 6.81096821e-14,22.9904847 6.81096821e-14,28.3306946 C6.81096821e-14,33.6709045 4.32909549,38 9.66930541,38 Z" id="Oval"></path>
            </g>
        </g>
        <g id="Group" transform="translate(151.018819, 238.779293)" fill="#3D68C4">
            <g id="drop" transform="translate(9.669305, 19.000000) rotate(-45.000000) translate(-9.669305, -19.000000) ">
                <path d="M9.66930541,38 C15.0095153,38 19.3386108,33.6709045 19.3386108,28.3306946 C19.3386108,22.9904847 9.66930541,0 9.66930541,0 C9.66930541,0 6.81096821e-14,22.9904847 6.81096821e-14,28.3306946 C6.81096821e-14,33.6709045 4.32909549,38 9.66930541,38 Z" id="Oval"></path>
            </g>
        </g>
        <g id="Group" transform="translate(241.528487, 148.269625)" fill="#3D68C4">
            <g id="drop" transform="translate(9.669305, 19.000000) rotate(-45.000000) translate(-9.669305, -19.000000) ">
                <path d="M9.66930541,38 C15.0095153,38 19.3386108,33.6709045 19.3386108,28.3306946 C19.3386108,22.9904847 9.66930541,0 9.66930541,0 C9.66930541,0 6.81096821e-14,22.9904847 6.81096821e-14,28.3306946 C6.81096821e-14,33.6709045 4.32909549,38 9.66930541,38 Z" id="Oval"></path>
            </g>
        </g>
        <g id="Group" transform="translate(304.460990, 126.349314)" fill="#3D68C4">
            <g id="drop" transform="translate(9.669305, 19.000000) rotate(-45.000000) translate(-9.669305, -19.000000) ">
                <path d="M9.66930541,38 C15.0095153,38 19.3386108,33.6709045 19.3386108,28.3306946 C19.3386108,22.9904847 9.66930541,0 9.66930541,0 C9.66930541,0 6.81096821e-14,22.9904847 6.81096821e-14,28.3306946 C6.81096821e-14,33.6709045 4.32909549,38 9.66930541,38 Z" id="Oval"></path>
            </g>
        </g>
        <g id="Group" transform="translate(95.157383, 267.770671)" fill="#3D68C4">
            <g id="drop" transform="translate(9.669305, 19.000000) rotate(-45.000000) translate(-9.669305, -19.000000) ">
                <path d="M9.66930541,38 C15.0095153,38 19.3386108,33.6709045 19.3386108,28.3306946 C19.3386108,22.9904847 9.66930541,0 9.66930541,0 C9.66930541,0 6.81096821e-14,22.9904847 6.81096821e-14,28.3306946 C6.81096821e-14,33.6709045 4.32909549,38 9.66930541,38 Z" id="Oval"></path>
            </g>
        </g>
        <g id="Group" transform="translate(135.462469, 132.713275)" fill="#3D68C4">
            <g id="drop" transform="translate(9.669305, 19.000000) rotate(-45.000000) translate(-9.669305, -19.000000) ">
                <path d="M9.66930541,38 C15.0095153,38 19.3386108,33.6709045 19.3386108,28.3306946 C19.3386108,22.9904847 9.66930541,0 9.66930541,0 C9.66930541,0 6.81096821e-14,22.9904847 6.81096821e-14,28.3306946 C6.81096821e-14,33.6709045 4.32909549,38 9.66930541,38 Z" id="Oval"></path>
            </g>
        </g>
        <g id="Group" transform="translate(117.077693, 204.838167)" fill="#3D68C4">
            <g id="drop" transform="translate(9.669305, 19.000000) rotate(-45.000000) translate(-9.669305, -19.000000) ">
                <path d="M9.66930541,38 C15.0095153,38 19.3386108,33.6709045 19.3386108,28.3306946 C19.3386108,22.9904847 9.66930541,0 9.66930541,0 C9.66930541,0 6.81096821e-14,22.9904847 6.81096821e-14,28.3306946 C6.81096821e-14,33.6709045 4.32909549,38 9.66930541,38 Z" id="Oval"></path>
            </g>
        </g>
        <g id="Group" transform="translate(207.587361, 114.328499)" fill="#3D68C4">
            <g id="drop" transform="translate(9.669305, 19.000000) rotate(-45.000000) translate(-9.669305, -19.000000) ">
                <path d="M9.66930541,38 C15.0095153,38 19.3386108,33.6709045 19.3386108,28.3306946 C19.3386108,22.9904847 9.66930541,0 9.66930541,0 C9.66930541,0 6.81096821e-14,22.9904847 6.81096821e-14,28.3306946 C6.81096821e-14,33.6709045 4.32909549,38 9.66930541,38 Z" id="Oval"></path>
            </g>
        </g>
        <g id="Group" transform="translate(270.519865, 92.408189)" fill="#3D68C4">
            <g id="drop" transform="translate(9.669305, 19.000000) rotate(-45.000000) translate(-9.669305, -19.000000) ">
                <path d="M9.66930541,38 C15.0095153,38 19.3386108,33.6709045 19.3386108,28.3306946 C19.3386108,22.9904847 9.66930541,0 9.66930541,0 C9.66930541,0 6.81096821e-14,22.9904847 6.81096821e-14,28.3306946 C6.81096821e-14,33.6709045 4.32909549,38 9.66930541,38 Z" id="Oval"></path>
            </g>
        </g>
        <g id="Group" transform="translate(61.216257, 233.829545)" fill="#3D68C4">
            <g id="drop" transform="translate(9.669305, 19.000000) rotate(-45.000000) translate(-9.669305, -19.000000) ">
                <path d="M9.66930541,38 C15.0095153,38 19.3386108,33.6709045 19.3386108,28.3306946 C19.3386108,22.9904847 9.66930541,0 9.66930541,0 C9.66930541,0 6.81096821e-14,22.9904847 6.81096821e-14,28.3306946 C6.81096821e-14,33.6709045 4.32909549,38 9.66930541,38 Z" id="Oval"></path>
            </g>
        </g>
        <g id="Group" transform="translate(101.521344, 98.772150)" fill="#3D68C4">
            <g id="drop" transform="translate(9.669305, 19.000000) rotate(-45.000000) translate(-9.669305, -19.000000) ">
                <path d="M9.66930541,38 C15.0095153,38 19.3386108,33.6709045 19.3386108,28.3306946 C19.3386108,22.9904847 9.66930541,0 9.66930541,0 C9.66930541,0 6.81096821e-14,22.9904847 6.81096821e-14,28.3306946 C6.81096821e-14,33.6709045 4.32909549,38 9.66930541,38 Z" id="Oval"></path>
            </g>
        </g>
        <g id="Group" transform="translate(83.136568, 170.897042)" fill="#3D68C4">
            <g id="drop" transform="translate(9.669305, 19.000000) rotate(-45.000000) translate(-9.669305, -19.000000) ">
                <path d="M9.66930541,38 C15.0095153,38 19.3386108,33.6709045 19.3386108,28.3306946 C19.3386108,22.9904847 9.66930541,0 9.66930541,0 C9.66930541,0 6.81096821e-14,22.9904847 6.81096821e-14,28.3306946 C6.81096821e-14,33.6709045 4.32909549,38 9.66930541,38 Z" id="Oval"></path>
            </g>
        </g>
        <g id="Group" transform="translate(173.646236, 80.387374)" fill="#3D68C4">
            <g id="drop" transform="translate(9.669305, 19.000000) rotate(-45.000000) translate(-9.669305, -19.000000) ">
                <path d="M9.66930541,38 C15.0095153,38 19.3386108,33.6709045 19.3386108,28.3306946 C19.3386108,22.9904847 9.66930541,0 9.66930541,0 C9.66930541,0 6.81096821e-14,22.9904847 6.81096821e-14,28.3306946 C6.81096821e-14,33.6709045 4.32909549,38 9.66930541,38 Z" id="Oval"></path>
            </g>
        </g>
        <g id="Group" transform="translate(236.578739, 58.467063)" fill="#3D68C4">
            <g id="drop" transform="translate(9.669305, 19.000000) rotate(-45.000000) translate(-9.669305, -19.000000) ">
                <path d="M9.66930541,38 C15.0095153,38 19.3386108,33.6709045 19.3386108,28.3306946 C19.3386108,22.9904847 9.66930541,0 9.66930541,0 C9.66930541,0 6.81096821e-14,22.9904847 6.81096821e-14,28.3306946 C6.81096821e-14,33.6709045 4.32909549,38 9.66930541,38 Z" id="Oval"></path>
            </g>
        </g>
        <g id="Group" transform="translate(195.470629, 187.399947)">
            <g id="rainy" transform="translate(115.443356, 129.000000) rotate(-45.000000) translate(-115.443356, -129.000000) ">
                <rect id="Rectangle" fill="#D8D8D8" x="111.124843" y="0" width="12.2730666" height="230.887065" rx="6.13653328"></rect>
                <path d="M59.00471,211.937743 C63.7142344,211.937743 67.5433456,215.70724 67.6395305,220.393721 L67.6413832,220.574416 C67.6413832,234.97654 73.4526728,240.726654 88.0999107,240.726654 C102.600676,240.726654 108.441329,235.090968 108.556692,221.003887 L108.558438,220.574416 L108.559037,220.522743 L125.831636,220.523219 C125.831735,220.540273 125.831785,220.557339 125.831785,220.574416 C125.831785,244.557506 112.246274,258 88.0999107,258 C63.9535477,258 50.3680367,244.557506 50.3680367,220.574416 C50.3680367,215.804513 54.2348071,211.937743 59.00471,211.937743 Z" id="Combined-Shape" fill="#D8D8D8" fill-rule="nonzero"></path>
                <path d="M115.44318,12.6671208 C179.200882,12.6671208 230.886712,64.3529507 230.886712,128.110653 L230.884,127.822121 L3.7513361e-07,127.822173 C0.154067426,64.8343293 50.752747,13.700491 113.53411,12.6825869 Z" id="Combined-Shape" fill="#3D68C4"></path>
            </g>
        </g>
    </g>
</svg>