<?xml version="1.0" encoding="UTF-8"?>
<svg width="500px" height="500px" viewBox="0 0 500 500" version="1.1" xmlns="http://www.w3.org/2000/svg" xmlns:xlink="http://www.w3.org/1999/xlink">
    <title>313</title>
    <g id="313" stroke="none" stroke-width="1" fill="none" fill-rule="evenodd">
        <g id="rainy" transform="translate(27.000612, 32.089199)">
            <rect id="Rectangle" fill="#D8D8D8" x="100.787649" y="0" width="11.131386" height="209.409198" rx="5.56569298"></rect>
            <path d="M53.5158998,192.222604 C57.7873289,192.222604 61.2602437,195.64145 61.3474812,199.891979 L61.3491615,200.055866 C61.3491615,213.118258 66.619866,218.333476 79.9045702,218.333476 C93.0564273,218.333476 98.3537633,213.22204 98.4583949,200.445386 L98.4599788,200.055866 L98.460638,200.008604 L114.126364,200.008787 C114.126456,200.024469 114.126502,200.040162 114.126502,200.055866 C114.126502,221.80797 101.80476,234 79.9045702,234 C58.0043805,234 45.682638,221.80797 45.682638,200.055866 C45.682638,195.729675 49.1897087,192.222604 53.5158998,192.222604 Z" id="Combined-Shape" fill="#D8D8D8" fill-rule="nonzero"></path>
            <path d="M104.70428,11.4887839 C162.531033,11.4887839 209.408879,58.3666297 209.408879,116.193383 L209.406,115.931784 L-1.77221494e-08,115.931885 C0.139657177,58.8033081 46.0315126,12.4260275 102.972798,11.5028114 Z" id="Combined-Shape" fill="#3D68C4"></path>
        </g>
        <g id="cloudy" transform="translate(226.000000, 266.000000)" fill="#D8D8D8">
            <circle id="Oval" cx="45.8445748" cy="147.155425" r="45.8445748"></circle>
            <circle id="Oval" cx="91.6891496" cy="93.9530792" r="53.202346"></circle>
            <circle id="Oval" cx="148.853372" cy="53.202346" r="53.202346"></circle>
            <circle id="Oval" cx="191.302053" cy="132.439883" r="60.5601173"></circle>
            <rect id="Rectangle" x="52.0703812" y="121.120235" width="141.495601" height="71.8797654"></rect>
        </g>
        <g id="Line" transform="translate(74.672856, 305.688139)">
            <path d="M-5.68434189e-14,-5 C2.6887547,-5 4.88181811,-2.87769329 4.99538049,-0.216889622 L5,2.48689958e-14 L4.999,48.811 L63.827,48.811 L63.8271442,30.0330202 C63.8271442,28.3153678 65.1715617,26.9117209 66.8655161,26.8169601 L67.0483035,26.8118609 C67.5483726,26.8118609 68.0415742,26.92829 68.4888497,27.1519278 L68.4888497,27.1519278 L116.045826,50.9304157 C117.637009,51.7260074 118.281963,53.6608709 117.486372,55.2520543 C117.17468,55.8754369 116.669208,56.3809092 116.045826,56.6926005 L116.045826,56.6926005 L68.4888497,80.4710885 C66.8976663,81.2666802 64.9628028,80.6217257 64.1672111,79.0305423 C63.9435733,78.5832668 63.8271442,78.0900653 63.8271442,77.5899961 L63.8271442,77.5899961 L63.827,58.811 L-5.68434189e-14,58.8118609 C-2.6887547,58.8118609 -4.88181811,56.6895542 -4.99538049,54.0287506 L-5,53.8118609 L-5,2.48689958e-14 C-5,-2.76142375 -2.76142375,-5 -5.68434189e-14,-5 Z" fill="#979797" fill-rule="nonzero"></path>
            <polyline stroke="#979797" stroke-width="16" stroke-linecap="round" stroke-linejoin="round" points="0 7.28306304e-14 1.01973985e-13 54 88 54"></polyline>
        </g>
    </g>
</svg>