<?xml version="1.0" encoding="UTF-8"?>
<svg width="500px" height="500px" viewBox="0 0 500 500" version="1.1" xmlns="http://www.w3.org/2000/svg" xmlns:xlink="http://www.w3.org/1999/xlink">
    <title>403</title>
    <g id="403" stroke="none" stroke-width="1" fill="none" fill-rule="evenodd">
        <g id="snow" transform="translate(42.125905, 43.688139)">
            <circle id="Oval" fill="#D8D8D8" cx="110.165973" cy="83.4590706" r="83.4590706"></circle>
            <circle id="Oval" fill="#D8D8D8" cx="110.322992" cy="234.677008" r="110.322992"></circle>
            <circle id="Oval" fill="#FFFFFF" cx="77.6169357" cy="64.2634844" r="10.0150885"></circle>
            <circle id="Oval" fill="#FFFFFF" cx="143.549602" cy="64.2634844" r="10.0150885"></circle>
            <polygon id="Triangle" fill="#FFFFFF" points="110.583269 90.1357963 126.977015 115.173517 94.1895226 115.173517"></polygon>
        </g>
        <g id="rainy" transform="translate(281.522778, 250.089199)">
            <rect id="Rectangle" fill="#D8D8D8" x="83.1282743" y="0" width="9.18101491" height="172.717843" rx="4.59050746"></rect>
            <path d="M44.1391823,158.542575 C47.6621986,158.542575 50.5266113,161.362392 50.5985635,164.868171 L50.5999495,165.003342 C50.5999495,175.777024 54.9471544,180.078466 65.9041968,180.078466 C76.7516687,180.078466 81.120839,175.862623 81.2071377,165.324613 L81.2084441,165.003342 L81.2094151,164.964575 L94.1298676,164.965087 C94.1299415,164.97783 94.1299785,164.990582 94.1299785,165.003342 C94.1299785,182.944181 83.9671738,193 65.9041968,193 C47.8412198,193 37.6784151,182.944181 37.6784151,165.003342 C37.6784151,161.435159 40.5709991,158.542575 44.1391823,158.542575 Z" id="Combined-Shape" fill="#D8D8D8" fill-rule="nonzero"></path>
            <path d="M86.3586579,9.47579189 C134.053373,9.47579189 172.717579,48.139998 172.717579,95.8347134 L172.715,95.6187919 L-7.81997966e-07,95.6193471 C0.115019098,48.5003344 37.9660577,10.2488193 84.9305552,9.48736152 Z" id="Combined-Shape" fill="#3D68C4"></path>
        </g>
    </g>
</svg>