<?xml version="1.0" encoding="UTF-8"?>
<svg width="500px" height="500px" viewBox="0 0 500 500" version="1.1" xmlns="http://www.w3.org/2000/svg" xmlns:xlink="http://www.w3.org/1999/xlink">
    <title>411</title>
    <g id="411" stroke="none" stroke-width="1" fill="none" fill-rule="evenodd">
        <g id="snow" transform="translate(26.125905, 27.688139)">
            <circle id="Oval" fill="#D8D8D8" cx="79.8304154" cy="60.4775874" r="60.4775874"></circle>
            <circle id="Oval" fill="#D8D8D8" cx="79.9441974" cy="170.055803" r="79.9441974"></circle>
            <circle id="Oval" fill="#FFFFFF" cx="56.2441563" cy="46.5677423" r="7.25731049"></circle>
            <circle id="Oval" fill="#FFFFFF" cx="104.02145" cy="46.5677423" r="7.25731049"></circle>
            <polygon id="Triangle" fill="#FFFFFF" points="80.1328033 65.3157944 92.0123294 83.4590706 68.2532772 83.4590706"></polygon>
        </g>
        <g id="sunny" transform="translate(209.230079, 194.449631)" fill="#CA5933">
            <circle id="Oval" cx="131.965321" cy="138.207744" r="84.1697871"></circle>
            <polygon id="Triangle" points="132.073151 0 156.330416 40.9158687 107.815886 40.9158687"></polygon>
            <polygon id="Triangle" transform="translate(234.300578, 79.478967) rotate(60.000000) translate(-234.300578, -79.478967) " points="234.300578 59.0210328 258.557844 99.9369015 210.043313 99.9369015"></polygon>
            <polygon id="Triangle" transform="translate(234.300578, 197.521033) rotate(120.000000) translate(-234.300578, -197.521033) " points="234.300578 177.063098 258.557844 217.978967 210.043313 217.978967"></polygon>
            <polygon id="Triangle" transform="translate(132.073151, 256.542066) rotate(180.000000) translate(-132.073151, -256.542066) " points="132.073151 236.084131 156.330416 277 107.815886 277"></polygon>
            <polygon id="Triangle" transform="translate(29.845723, 197.521033) rotate(240.000000) translate(-29.845723, -197.521033) " points="29.8457234 177.063098 54.1029884 217.978967 5.58845835 217.978967"></polygon>
            <polygon id="Triangle" transform="translate(29.845723, 79.478967) rotate(300.000000) translate(-29.845723, -79.478967) " points="29.8457234 59.0210328 54.1029884 99.9369015 5.58845835 99.9369015"></polygon>
        </g>
        <g id="Line" transform="translate(71.672856, 305.688139)">
            <path d="M-5.68434189e-14,-5 C2.6887547,-5 4.88181811,-2.87769329 4.99538049,-0.216889622 L5,2.48689958e-14 L4.999,48.811 L63.827,48.811 L63.8271442,30.0330202 C63.8271442,28.3153678 65.1715617,26.9117209 66.8655161,26.8169601 L67.0483035,26.8118609 C67.5483726,26.8118609 68.0415742,26.92829 68.4888497,27.1519278 L68.4888497,27.1519278 L116.045826,50.9304157 C117.637009,51.7260074 118.281963,53.6608709 117.486372,55.2520543 C117.17468,55.8754369 116.669208,56.3809092 116.045826,56.6926005 L116.045826,56.6926005 L68.4888497,80.4710885 C66.8976663,81.2666802 64.9628028,80.6217257 64.1672111,79.0305423 C63.9435733,78.5832668 63.8271442,78.0900653 63.8271442,77.5899961 L63.8271442,77.5899961 L63.827,58.811 L-5.68434189e-14,58.8118609 C-2.6887547,58.8118609 -4.88181811,56.6895542 -4.99538049,54.0287506 L-5,53.8118609 L-5,2.48689958e-14 C-5,-2.76142375 -2.76142375,-5 -5.68434189e-14,-5 Z" fill="#979797" fill-rule="nonzero"></path>
            <polyline stroke="#979797" stroke-width="16" stroke-linecap="round" stroke-linejoin="round" points="0 7.28306304e-14 1.01973985e-13 54 88 54"></polyline>
        </g>
    </g>
</svg>