<?xml version="1.0" encoding="UTF-8"?>
<svg width="500px" height="500px" viewBox="0 0 500 500" version="1.1" xmlns="http://www.w3.org/2000/svg" xmlns:xlink="http://www.w3.org/1999/xlink">
    <title>absolute-humidity</title>
    <g id="absolute-humidity" stroke="none" stroke-width="1" fill="none" fill-rule="evenodd">
        <path d="M398,62 C420.09139,62 438,79.90861 438,102 L438,398 C438,420.09139 420.09139,438 398,438 L102,438 C79.90861,438 62,420.09139 62,398 L62,102 C62,79.90861 79.90861,62 102,62 L398,62 Z M398,80 L102,80 C89.9712381,80 80.1972248,89.6537258 80,101.63619 L80,102 L80,398 C80,410.028762 89.6537258,419.802775 101.63619,420 L102,420 L398,420 C410.028762,420 419.802775,410.346274 420,398.36381 L420,398 L420,102 C420,89.9712381 410.346274,80.1972248 398.36381,80 L398,80 Z" id="Rectangle" fill="#646464" fill-rule="nonzero"></path>
        <path d="M188.90304,130 L190.692325,134.005813 L191.862134,136.643927 L194.36905,142.335198 L196.820882,147.945915 L198.88789,152.708368 L200.363028,156.124995 L202.706097,161.582628 L204.346104,165.425461 L206.041324,169.417918 L207.785621,173.54808 C208.080087,174.247253 208.376341,174.951668 208.674257,175.661075 L210.480668,179.975445 L212.32082,184.397721 C212.939146,185.888474 213.562073,187.395224 214.188578,188.915985 L216.077808,193.518317 C233.47541,236.055256 252.80608,287.685989 252.80608,307.09696 C252.80608,342.389634 224.195714,371 188.90304,371 C153.610366,371 125,342.389634 125,307.09696 C125,287.685989 144.33067,236.055256 161.728272,193.518317 L163.617502,188.915985 C163.930754,188.155604 164.243112,187.398727 164.554448,186.6456 L166.40917,182.17384 C166.715904,181.436711 167.021361,180.70383 167.325412,179.975445 L169.131823,175.661075 L170.898358,171.466531 L172.618884,167.403732 L175.099983,161.582628 L176.678644,157.901337 L178.189823,154.393509 L180.316644,149.483081 L182.858963,143.654205 L185.02093,138.733723 L187.113755,134.005813 L188.90304,130 Z M189.209917,175.829288 L188.902,175.108 L188.596163,175.829288 C183.486938,187.882074 178.45239,200.051048 173.65966,212.00985 L171.982231,216.212947 L170.885452,218.980834 L169.273116,223.079854 L167.700867,227.113647 L166.169474,231.080127 L165.171627,233.686022 L164.19251,236.260454 L163.232353,238.802807 L162.291385,241.312462 L161.369835,243.788801 L160.46793,246.231206 L159.585901,248.63906 L158.723976,251.011744 L157.882384,253.34864 L157.061354,255.649131 L155.868861,259.030254 L154.72392,262.325988 L153.987424,264.474676 L153.272633,266.583868 L152.579778,268.652947 L151.909085,270.681294 L151.260785,272.668291 L150.33082,275.569904 L149.739501,277.450824 L149.171375,279.28823 L148.626671,281.081507 L148.105618,282.830034 L147.608443,284.533195 C147.527584,284.81324 147.447728,285.09137 147.368883,285.36757 L146.907957,287.001522 C146.833167,287.269956 146.759396,287.536434 146.686649,287.800945 L146.262486,289.364299 C146.193852,289.620888 146.126251,289.875484 146.059688,290.128074 L145.672803,291.619438 C145.61041,291.863952 145.549065,292.106434 145.488772,292.346871 L145.13968,293.764855 C145.083615,293.997062 145.028612,294.227198 144.974675,294.455251 L144.66389,295.798464 L144.378929,297.091057 C143.472355,301.31465 143,304.684284 143,307.09696 C143,332.448509 163.551491,353 188.90304,353 C214.254589,353 234.80608,332.448509 234.80608,307.09696 C234.80608,304.925551 234.423472,301.979007 233.686058,298.332413 L233.427151,297.091057 L233.14219,295.798464 C232.844279,294.480457 232.507632,293.086522 232.133277,291.619438 L231.746392,290.128074 L231.334598,288.588563 C231.193207,288.067437 231.047703,287.538389 230.898123,287.001522 L230.437197,285.36757 L229.952049,283.687324 L229.442906,281.961403 C229.356062,281.669977 229.268228,281.376674 229.179409,281.081507 L228.634705,279.28823 L228.066579,277.450824 L227.47526,275.569904 L226.545295,272.668291 L225.896995,270.681294 L225.226302,268.652947 L224.533446,266.583868 L223.818656,264.474676 L223.08216,262.325988 L222.324187,260.138423 L221.14746,256.785531 L220.336796,254.503475 L219.505456,252.184704 L218.653668,249.829837 L217.33815,246.231206 L216.436245,243.788801 L215.046624,240.06176 L214.096033,237.535679 L213.126367,234.977209 L212.137856,232.386969 L210.620255,228.443389 L209.061539,224.431802 L207.462479,220.354293 L206.374408,217.60036 L204.709826,213.417615 C204.522732,212.949473 204.334928,212.480214 204.14642,212.00985 C199.35369,200.051048 194.319142,187.882074 189.209917,175.829288 Z" id="Oval" fill="#646464" fill-rule="nonzero"></path>
        <path d="M328.580078,369.488281 C344.348307,369.488281 355.01237,365.295573 360.572266,356.910156 C363.807943,352.033854 365.425781,344.78776 365.425781,335.171875 L365.425781,335.171875 L365.425781,264.488281 L346.490234,264.488281 L346.490234,275.220703 C343.573568,269.979818 339.745443,266.379557 335.005859,264.419922 C332.225911,263.280599 328.967448,262.710938 325.230469,262.710938 C315.113281,262.710938 307.297526,266.482096 301.783203,274.024414 C296.26888,281.566732 293.511719,290.875 293.511719,301.949219 C293.511719,313.433594 296.371419,322.536784 302.09082,329.258789 C307.810221,335.980794 315.455078,339.341797 325.025391,339.341797 C331.223307,339.341797 336.259115,337.860677 340.132812,334.898438 C342.27474,333.303385 344.279948,330.910807 346.148438,327.720703 L346.148438,327.720703 L346.148438,332.505859 C346.148438,339.615234 345.373698,344.673828 343.824219,347.681641 C341.454427,352.375651 336.760417,354.722656 329.742188,354.722656 C324.77474,354.722656 321.242839,353.833984 319.146484,352.056641 C317.916016,351.054036 317.027344,349.413411 316.480469,347.134766 L316.480469,347.134766 L295.289062,347.134766 C295.927083,354.563151 299.253906,360.145833 305.269531,363.882812 C311.285156,367.619792 319.055339,369.488281 328.580078,369.488281 Z M330.083984,323.003906 C323.248047,323.003906 318.508464,319.859375 315.865234,313.570312 C314.406901,310.197917 313.677734,306.347005 313.677734,302.017578 C313.677734,297.004557 314.361328,292.789062 315.728516,289.371094 C318.326172,282.945312 323.042969,279.732422 329.878906,279.732422 C334.891927,279.732422 338.890951,281.578125 341.875977,285.269531 C344.861003,288.960938 346.353516,294.338542 346.353516,301.402344 C346.353516,308.921875 344.78125,314.402018 341.636719,317.842773 C338.492188,321.283529 334.641276,323.003906 330.083984,323.003906 Z" id="g" fill="#646464" fill-rule="nonzero"></path>
    </g>
</svg>