<?xml version="1.0" encoding="UTF-8"?>
<svg width="500px" height="500px" viewBox="0 0 500 500" version="1.1" xmlns="http://www.w3.org/2000/svg" xmlns:xlink="http://www.w3.org/1999/xlink">
    <title>max-temp</title>
    <g id="max-temp" stroke="none" stroke-width="1" fill="none" fill-rule="evenodd">
        <g id="Group" transform="translate(-107.000000, 0.000000)" fill="#646464">
            <path d="M250.5,33 C278.942665,33 302,56.0573354 302,84.5 L302.000782,309.277301 C324.395197,325.230272 339,351.409569 339,381 C339,429.601058 299.601058,469 251,469 C202.398942,469 163,429.601058 163,381 C163,351.851896 177.171432,326.013707 199.000186,309.999543 L199,84.5 C199,56.0573354 222.057335,33 250.5,33 Z M250.5,51 C232.183476,51 217.30032,65.6999915 217.004488,83.9460018 L217,84.4999851 L217.000194,319.118668 L209.647504,324.5128 C191.759798,337.635705 181,358.403706 181,381 C181,419.659932 212.340068,451 251,451 C289.659932,451 321,419.659932 321,381 C321,358.287165 310.125459,337.4291 292.105406,324.332308 L291.55716,323.937818 L284.000815,318.55495 L284,84.5 C284,65.9984609 269.001539,51 250.5,51 Z" id="Combined-Shape" fill-rule="nonzero"></path>
            <circle id="Oval" cx="251" cy="381" r="50"></circle>
            <path d="M250.5,154.5 C255.470563,154.5 259.5,158.529437 259.5,163.5 C259.5,168.381803 255.613186,172.355791 250.765362,172.496163 L250.5,172.5 L213.5,172.5 C208.529437,172.5 204.5,168.470563 204.5,163.5 C204.5,158.618197 208.386814,154.644209 213.234638,154.503837 L213.5,154.5 L250.5,154.5 Z" id="Line" fill-rule="nonzero"></path>
            <path d="M250.5,194.5 C255.470563,194.5 259.5,198.529437 259.5,203.5 C259.5,208.381803 255.613186,212.355791 250.765362,212.496163 L250.5,212.5 L213.5,212.5 C208.529437,212.5 204.5,208.470563 204.5,203.5 C204.5,198.618197 208.386814,194.644209 213.234638,194.503837 L213.5,194.5 L250.5,194.5 Z" id="Line" fill-rule="nonzero"></path>
            <path d="M250.5,234.5 C255.470563,234.5 259.5,238.529437 259.5,243.5 C259.5,248.381803 255.613186,252.355791 250.765362,252.496163 L250.5,252.5 L213.5,252.5 C208.529437,252.5 204.5,248.470563 204.5,243.5 C204.5,238.618197 208.386814,234.644209 213.234638,234.503837 L213.5,234.5 L250.5,234.5 Z" id="Line" fill-rule="nonzero"></path>
            <path d="M250.5,274.5 C255.470563,274.5 259.5,278.529437 259.5,283.5 C259.5,288.381803 255.613186,292.355791 250.765362,292.496163 L250.5,292.5 L213.5,292.5 C208.529437,292.5 204.5,288.470563 204.5,283.5 C204.5,278.618197 208.386814,274.644209 213.234638,274.503837 L213.5,274.5 L250.5,274.5 Z" id="Line" fill-rule="nonzero"></path>
        </g>
        <path d="M356,34 L451,152 L398,152 L398,299 L312,299 L312,152 L261,152 L356,34 Z M356,62.702 L298.599,134 L330,134 L330,281 L380,281 L380,134 L413.4,134 L356,62.702 Z" id="Combined-Shape" fill="#646464" fill-rule="nonzero" transform="translate(356.000000, 166.500000) rotate(-360.000000) translate(-356.000000, -166.500000) "></path>
    </g>
</svg>