<?xml version="1.0" encoding="UTF-8"?>
<svg width="500px" height="500px" viewBox="0 0 500 500" version="1.1" xmlns="http://www.w3.org/2000/svg" xmlns:xlink="http://www.w3.org/1999/xlink">
    <title>precipitation</title>
    <g id="precipitation" stroke="none" stroke-width="1" fill="none" fill-rule="evenodd">
        <path d="M250,81 C342.402761,81 417.484955,155.158166 418.977359,247.205276 L419,250 L81,250 C81,156.663877 156.663877,81 250,81 Z M250,99 C173.276603,99 109.917856,156.220874 100.271487,230.314898 L100.066,232 L399.935,232 L399.748794,230.461962 C390.267599,157.023464 328.049783,100.232617 252.469268,99.0197992 L250,99 Z" id="Combined-Shape" fill="#646464" fill-rule="nonzero"></path>
        <path d="M251.290172,56.004679 C256.169436,56.1620746 260.016043,60.1749941 260.000141,65.0248236 L259.995321,65.2901716 L259.495321,80.7901716 C259.335064,85.7581503 255.177807,89.6555784 250.209828,89.495321 C245.330564,89.3379254 241.483957,85.3250059 241.499859,80.4751764 L241.504679,80.2098284 L242.004679,64.7098284 C242.162075,59.8305636 246.174994,55.9839568 251.024824,55.9998593 L251.290172,56.004679 Z" id="Line-3" fill="#646464" fill-rule="nonzero"></path>
        <path d="M250.5,240.78063 C255.381803,240.78063 259.355791,244.667444 259.496163,249.515268 L259.5,249.78063 L259.5,401.160391 C259.5,428.833053 244.744263,444.363697 218.003278,444.363697 C191.262294,444.363697 176.506557,428.833053 176.506557,401.160391 C176.506557,396.189829 180.535994,392.160391 185.506557,392.160391 C190.47712,392.160391 194.506557,396.189829 194.506557,401.160391 C194.506557,419.092137 201.4153,426.363697 218.003278,426.363697 C234.425377,426.363697 241.360857,419.236841 241.497925,401.695149 L241.5,401.160391 L241.5,249.78063 C241.5,244.810068 245.529437,240.78063 250.5,240.78063 Z" id="Line" fill="#646464" fill-rule="nonzero"></path>
    </g>
</svg>