<?xml version="1.0" encoding="UTF-8"?>
<svg width="500px" height="500px" viewBox="0 0 500 500" version="1.1" xmlns="http://www.w3.org/2000/svg" xmlns:xlink="http://www.w3.org/1999/xlink">
    <title>relative-humidity</title>
    <g id="relative-humidity" stroke="none" stroke-width="1" fill="none" fill-rule="evenodd">
        <path d="M398,62 C420.09139,62 438,79.90861 438,102 L438,398 C438,420.09139 420.09139,438 398,438 L102,438 C79.90861,438 62,420.09139 62,398 L62,102 C62,79.90861 79.90861,62 102,62 L398,62 Z M398,80 L102,80 C89.9712381,80 80.1972248,89.6537258 80,101.63619 L80,102 L80,398 C80,410.028762 89.6537258,419.802775 101.63619,420 L102,420 L398,420 C410.028762,420 419.802775,410.346274 420,398.36381 L420,398 L420,102 C420,89.9712381 410.346274,80.1972248 398.36381,80 L398,80 Z" id="Rectangle" fill="#646464" fill-rule="nonzero"></path>
        <path d="M178.90304,130 L180.692325,134.005813 L181.862134,136.643927 L184.36905,142.335198 L186.820882,147.945915 L188.88789,152.708368 L190.363028,156.124995 L192.706097,161.582628 L194.346104,165.425461 L196.041324,169.417918 L197.785621,173.54808 C198.080087,174.247253 198.376341,174.951668 198.674257,175.661075 L200.480668,179.975445 L202.32082,184.397721 C202.939146,185.888474 203.562073,187.395224 204.188578,188.915985 L206.077808,193.518317 C223.47541,236.055256 242.80608,287.685989 242.80608,307.09696 C242.80608,342.389634 214.195714,371 178.90304,371 C143.610366,371 115,342.389634 115,307.09696 C115,287.685989 134.33067,236.055256 151.728272,193.518317 L153.617502,188.915985 C153.930754,188.155604 154.243112,187.398727 154.554448,186.6456 L156.40917,182.17384 C156.715904,181.436711 157.021361,180.70383 157.325412,179.975445 L159.131823,175.661075 L160.898358,171.466531 L162.618884,167.403732 L165.099983,161.582628 L166.678644,157.901337 L168.189823,154.393509 L170.316644,149.483081 L172.858963,143.654205 L175.02093,138.733723 L177.113755,134.005813 L178.90304,130 Z M179.209917,175.829288 L178.902,175.108 L178.596163,175.829288 C173.486938,187.882074 168.45239,200.051048 163.65966,212.00985 L161.982231,216.212947 L160.885452,218.980834 L159.273116,223.079854 L157.700867,227.113647 L156.169474,231.080127 L155.171627,233.686022 L154.19251,236.260454 L153.232353,238.802807 L152.291385,241.312462 L151.369835,243.788801 L150.46793,246.231206 L149.585901,248.63906 L148.723976,251.011744 L147.882384,253.34864 L147.061354,255.649131 L145.868861,259.030254 L144.72392,262.325988 L143.987424,264.474676 L143.272633,266.583868 L142.579778,268.652947 L141.909085,270.681294 L141.260785,272.668291 L140.33082,275.569904 L139.739501,277.450824 L139.171375,279.28823 L138.626671,281.081507 L138.105618,282.830034 L137.608443,284.533195 C137.527584,284.81324 137.447728,285.09137 137.368883,285.36757 L136.907957,287.001522 C136.833167,287.269956 136.759396,287.536434 136.686649,287.800945 L136.262486,289.364299 C136.193852,289.620888 136.126251,289.875484 136.059688,290.128074 L135.672803,291.619438 C135.61041,291.863952 135.549065,292.106434 135.488772,292.346871 L135.13968,293.764855 C135.083615,293.997062 135.028612,294.227198 134.974675,294.455251 L134.66389,295.798464 L134.378929,297.091057 C133.472355,301.31465 133,304.684284 133,307.09696 C133,332.448509 153.551491,353 178.90304,353 C204.254589,353 224.80608,332.448509 224.80608,307.09696 C224.80608,304.925551 224.423472,301.979007 223.686058,298.332413 L223.427151,297.091057 L223.14219,295.798464 C222.844279,294.480457 222.507632,293.086522 222.133277,291.619438 L221.746392,290.128074 L221.334598,288.588563 C221.193207,288.067437 221.047703,287.538389 220.898123,287.001522 L220.437197,285.36757 L219.952049,283.687324 L219.442906,281.961403 C219.356062,281.669977 219.268228,281.376674 219.179409,281.081507 L218.634705,279.28823 L218.066579,277.450824 L217.47526,275.569904 L216.545295,272.668291 L215.896995,270.681294 L215.226302,268.652947 L214.533446,266.583868 L213.818656,264.474676 L213.08216,262.325988 L212.324187,260.138423 L211.14746,256.785531 L210.336796,254.503475 L209.505456,252.184704 L208.653668,249.829837 L207.33815,246.231206 L206.436245,243.788801 L205.046624,240.06176 L204.096033,237.535679 L203.126367,234.977209 L202.137856,232.386969 L200.620255,228.443389 L199.061539,224.431802 L197.462479,220.354293 L196.374408,217.60036 L194.709826,213.417615 C194.522732,212.949473 194.334928,212.480214 194.14642,212.00985 C189.35369,200.051048 184.319142,187.882074 179.209917,175.829288 Z" id="Oval" fill="#646464" fill-rule="nonzero"></path>
        <path d="M299.375,341.597656 L354.609375,239.878906 L344.21875,239.878906 L288.779297,341.597656 L299.375,341.597656 Z M288.642578,291.216797 C295.70638,291.216797 301.710612,288.733073 306.655273,283.765625 C311.599935,278.798177 314.072266,272.805339 314.072266,265.787109 C314.072266,258.76888 311.588542,252.776042 306.621094,247.808594 C301.653646,242.841146 295.660807,240.357422 288.642578,240.357422 C281.624349,240.357422 275.63151,242.841146 270.664062,247.808594 C265.696615,252.776042 263.212891,258.76888 263.212891,265.787109 C263.212891,272.805339 265.696615,278.798177 270.664062,283.765625 C275.63151,288.733073 281.624349,291.216797 288.642578,291.216797 Z M288.642578,276.65625 C285.634766,276.65625 283.082682,275.585286 280.986328,273.443359 C278.844401,271.347005 277.773438,268.794922 277.773438,265.787109 C277.773438,262.779297 278.833008,260.21582 280.952148,258.09668 C283.071289,255.977539 285.634766,254.917969 288.642578,254.917969 C291.650391,254.917969 294.213867,255.977539 296.333008,258.09668 C298.452148,260.21582 299.511719,262.779297 299.511719,265.787109 C299.511719,268.794922 298.452148,271.358398 296.333008,273.477539 C294.213867,275.59668 291.650391,276.65625 288.642578,276.65625 Z M355.087891,340.982422 C362.10612,340.982422 368.098958,338.498698 373.066406,333.53125 C378.033854,328.563802 380.517578,322.570964 380.517578,315.552734 C380.517578,308.534505 378.033854,302.541667 373.066406,297.574219 C368.098958,292.606771 362.10612,290.123047 355.087891,290.123047 C348.069661,290.123047 342.076823,292.583984 337.109375,297.505859 C332.141927,302.473307 329.658203,308.488932 329.658203,315.552734 C329.658203,322.570964 332.141927,328.563802 337.109375,333.53125 C342.076823,338.498698 348.069661,340.982422 355.087891,340.982422 Z M355.087891,326.421875 C352.080078,326.421875 349.527995,325.350911 347.431641,323.208984 C345.289714,321.11263 344.21875,318.560547 344.21875,315.552734 C344.21875,312.544922 345.27832,309.981445 347.397461,307.862305 C349.516602,305.743164 352.080078,304.683594 355.087891,304.683594 C358.095703,304.683594 360.65918,305.743164 362.77832,307.862305 C364.897461,309.981445 365.957031,312.544922 365.957031,315.552734 C365.957031,318.560547 364.897461,321.124023 362.77832,323.243164 C360.65918,325.362305 358.095703,326.421875 355.087891,326.421875 Z" id="%" fill="#646464" fill-rule="nonzero"></path>
    </g>
</svg>