<?xml version="1.0" encoding="UTF-8"?>
<svg width="500px" height="500px" viewBox="0 0 500 500" version="1.1" xmlns="http://www.w3.org/2000/svg" xmlns:xlink="http://www.w3.org/1999/xlink">
    <title>sun</title>
    <g id="sun" stroke="none" stroke-width="1" fill="none" fill-rule="evenodd">
        <path d="M249.53186,130.53186 C315.253745,130.53186 368.53186,183.809974 368.53186,249.53186 C368.53186,315.253745 315.253745,368.53186 249.53186,368.53186 C183.809974,368.53186 130.53186,315.253745 130.53186,249.53186 C130.53186,183.809974 183.809974,130.53186 249.53186,130.53186 Z M249.53186,148.53186 C193.7511,148.53186 148.53186,193.7511 148.53186,249.53186 C148.53186,305.312619 193.7511,350.53186 249.53186,350.53186 C305.312619,350.53186 350.53186,305.312619 350.53186,249.53186 C350.53186,193.7511 305.312619,148.53186 249.53186,148.53186 Z" id="Oval" fill="#646464" fill-rule="nonzero"></path>
        <path d="M462,240.53186 C466.970563,240.53186 471,244.561297 471,249.53186 C471,254.413662 467.113186,258.387651 462.265362,258.528022 L462,258.53186 L368.091027,258.53186 C363.120465,258.53186 359.091027,254.502422 359.091027,249.53186 C359.091027,244.650057 362.977841,240.676068 367.825665,240.535697 L368.091027,240.53186 L462,240.53186 Z" id="Line-2" fill="#646464" fill-rule="nonzero"></path>
        <path d="M131,240.53186 C135.970563,240.53186 140,244.561297 140,249.53186 C140,254.413662 136.113186,258.387651 131.265362,258.528022 L131,258.53186 L37.0910273,258.53186 C32.1204646,258.53186 28.0910273,254.502422 28.0910273,249.53186 C28.0910273,244.650057 31.977841,240.676068 36.8256651,240.535697 L37.0910273,240.53186 L131,240.53186 Z" id="Line-2" fill="#646464" fill-rule="nonzero"></path>
        <path d="M249.53186,359.091027 C254.413662,359.091027 258.387651,362.977841 258.528022,367.825665 L258.53186,368.091027 L258.53186,462 C258.53186,466.970563 254.502422,471 249.53186,471 C244.650057,471 240.676068,467.113186 240.535697,462.265362 L240.53186,462 L240.53186,368.091027 C240.53186,363.120465 244.561297,359.091027 249.53186,359.091027 Z" id="Line-2" fill="#646464" fill-rule="nonzero"></path>
        <path d="M249.53186,28.0910273 C254.413662,28.0910273 258.387651,31.977841 258.528022,36.8256651 L258.53186,37.0910273 L258.53186,131 C258.53186,135.970563 254.502422,140 249.53186,140 C244.650057,140 240.676068,136.113186 240.535697,131.265362 L240.53186,131 L240.53186,37.0910273 C240.53186,32.1204646 244.561297,28.0910273 249.53186,28.0910273 Z" id="Line-2" fill="#646464" fill-rule="nonzero"></path>
        <path d="M350.054489,346.054489 C353.500292,342.608687 359.045062,342.541122 362.573177,345.851795 L362.782411,346.054489 L429.186083,412.458161 C432.700801,415.972879 432.700801,421.671364 429.186083,425.186083 C425.74028,428.631885 420.19551,428.69945 416.667395,425.388777 L416.458161,425.186083 L350.054489,358.782411 C346.539771,355.267693 346.539771,349.569208 350.054489,346.054489 Z" id="Line-2" fill="#646464" fill-rule="nonzero"></path>
        <path d="M70.0544894,74.0544894 C73.5002919,70.6086868 79.0450624,70.541122 82.5731774,73.8517951 L82.7824114,74.0544894 L149.186083,140.458161 C152.700801,143.972879 152.700801,149.671364 149.186083,153.186083 C145.74028,156.631885 140.19551,156.69945 136.667395,153.388777 L136.458161,153.186083 L70.0544894,86.7824114 C66.5397707,83.2676928 66.5397707,77.569208 70.0544894,74.0544894 Z" id="Line-2" fill="#646464" fill-rule="nonzero"></path>
        <path d="M136.458161,346.054489 C139.972879,342.539771 145.671364,342.539771 149.186083,346.054489 C152.631885,349.500292 152.69945,355.045062 149.388777,358.573177 L149.186083,358.782411 L82.7824114,425.186083 C79.2676928,428.700801 73.569208,428.700801 70.0544894,425.186083 C66.6086868,421.74028 66.541122,416.19551 69.8517951,412.667395 L70.0544894,412.458161 L136.458161,346.054489 Z" id="Line-2" fill="#646464" fill-rule="nonzero"></path>
        <path d="M416.458161,74.0544894 C419.972879,70.5397707 425.671364,70.5397707 429.186083,74.0544894 C432.631885,77.5002919 432.69945,83.0450624 429.388777,86.5731774 L429.186083,86.7824114 L362.782411,153.186083 C359.267693,156.700801 353.569208,156.700801 350.054489,153.186083 C346.608687,149.74028 346.541122,144.19551 349.851795,140.667395 L350.054489,140.458161 L416.458161,74.0544894 Z" id="Line-2" fill="#646464" fill-rule="nonzero"></path>
    </g>
</svg>